<svg width="604" height="603" viewBox="0 0 604 603" fill="none" xmlns="http://www.w3.org/2000/svg">
    <path d="M308 540.7V518.4L334.3 514.3C363.6 509.6 370.9 507.6 389 498.9C412 487.8 425.5 479.4 438.3 468.2C452.2 456 475.1 430.7 478.7 423.5C480.1 420.8 481.8 417.8 482.4 417C484 415 488.4 403.9 490.6 396.5C492.8 388.8 493.1 371.3 491.1 365C488.3 356.4 483.8 350.7 476.4 346.4C465 339.7 459.9 338.2 441.3 336C419.1 333.4 384.5 328.2 379.8 326.8C376.2 325.7 375.9 325.9 359.8 335.9C347.8 343.3 342.7 346 340.3 346C337.3 346 337 345.7 337 343C337 341.3 338.1 337.7 339.5 335C340.8 332.3 343 327.7 344.4 324.7L346.8 319.3L336.1 321.6C330.3 322.9 323.8 323.9 321.8 324C318.1 324 318 323.9 318 320.6C318 318.4 318.7 316.6 319.8 315.8C320.8 315.1 323.7 312.7 326.2 310.5L330.7 306.5L318.9 306.8L307 307V303.8C307 301.2 308.1 299.4 313 294.5L319 288.4L309.5 286L300 283.6V280.4C300 278 301.1 275.9 304.4 272.3L308.8 267.4L301.9 261.6C296 256.7 295 255.3 295 252.7C295 249.9 295.6 249.3 299.1 247.8L303.1 246.1L300 240.1C298.4 236.8 297 232.7 297 231C297 228.2 297.3 228 300.8 227.9C302.8 227.8 305.9 227.5 307.5 227.1C310.4 226.5 310.5 226.3 311.1 219C312 209.6 318.6 192.6 324 186C326 183.5 329.4 178.9 331.4 175.7C336.8 167.5 347.5 158.2 362.8 148.5C383.2 135.5 392 131.6 408.3 128.5C419 126.5 445.4 126.5 456.8 128.6C481.4 133 493.7 139 506.6 153C519.9 167.4 538 198.6 538 207.2V210H513.1H488.2L480.6 198.5C472 185.7 469.9 184 456.5 179.4C449.8 177 446.8 176.6 438 176.5C421.8 176.5 414.2 179.3 398 191.3C385 200.9 383.6 202.3 377.4 211.7C371 221.4 367.4 228.7 365.9 235.5C364.9 240.1 365 241 367.4 246.5C369.5 251.3 372.3 254.6 380.9 263C391.5 273.3 392 273.6 402.6 277.7C416 282.9 429.2 285.4 458.5 288C484.8 290.3 502.8 294.2 513 299.8C516.6 301.8 522.5 306.4 526.3 310.2C534.9 318.9 541.1 331.3 544.6 347C548 362.3 547.5 388 543.5 403.5C541.5 411 530 434.6 522.5 446.4C508.7 468.2 487.8 491.7 468.5 507.3C425.5 542 369 563 318.9 563H308V540.7Z" fill="white"/>
    <path d="M252.5 557.9C247.6 556.9 238.7 554.6 232.9 552.9L222.3 549.8L221.7 337.3C221.4 220.4 220.9 124.6 220.6 124.3C219.9 123.5 203.8 132.4 194 139C142.9 173.4 108.8 229.2 101.9 289.9C100.4 303 101.2 330.4 103.4 342.5C109.6 376.7 123.3 408.5 142.6 433.9C148.1 441 147.7 442.3 134.3 460.8C122.9 476.4 122.4 477 119 476.9C115.8 476.9 114.9 476.2 109.4 469.2C82.5 435.4 63.9 391.8 57.4 347.5C55.2 332.8 54.9 292.5 56.8 278C60.7 249 68.6 222.6 81 197.5C117.8 123 186.4 73.2 270 60.3C285.6 57.9 329.5 57.9 345 60.3C362.2 62.9 374.9 66 389.6 70.9C402.8 75.3 403.5 75.6 403.8 78.3C404 80.1 401.4 87.7 396.4 99.5C387.2 121.3 389.3 120.1 370.5 114C345.5 105.9 319 102.4 295.3 104.2C283.7 105 268.3 107.3 267.3 108.4C267 108.6 267.5 191.1 268.4 291.7C269.3 392.2 270 493.7 270 517.3V560L265.8 559.9C263.4 559.9 257.5 559 252.5 557.9Z" fill="white"/>
</svg>
