<svg version="1.1" id="Layer_1" xmlns="http://www.w3.org/2000/svg" xmlns:xlink="http://www.w3.org/1999/xlink" x="0px" y="0px"
	 width="100%" viewBox="0 0 604 603"  xml:space="preserve">
<path fill="#FEFEFE" opacity="1.000000" stroke="none"
	d="
M290.000000,0.999998
	C298.020905,1.000000 306.041809,1.000000 314.228119,1.382302
	C315.407928,2.175683 316.395355,2.849939 317.440918,2.957110
	C327.846527,4.023712 338.386353,4.307008 348.644684,6.160051
	C363.512939,8.845824 378.359192,12.012487 392.890106,16.122234
	C414.422516,22.212212 434.569427,31.730057 453.963959,42.936226
	C475.915741,55.619984 495.805267,70.992393 513.904297,88.607452
	C522.234924,96.715363 529.618103,105.824646 537.155212,114.713615
	C549.207031,128.927017 559.244934,144.536087 567.971985,160.970535
	C578.237305,180.301590 586.335999,200.489258 592.319031,221.589600
	C598.097107,241.967163 601.862854,262.720306 602.775269,283.765167
	C603.674683,304.508423 604.100342,325.412689 599.968140,345.987640
	C597.178162,359.879578 594.565063,373.838379 590.971924,387.530823
	C584.780884,411.123322 574.422424,433.029175 562.386658,454.181824
	C551.504822,473.306641 538.359802,490.791840 523.480286,506.899170
	C505.864746,525.968201 486.394897,543.156250 463.939209,556.219482
	C446.503571,566.362366 428.362640,575.587097 409.755859,583.352539
	C382.920746,594.552002 354.609772,600.517029 325.464874,602.080505
	C324.611389,602.126343 323.820221,603.333984 323.000000,604.000000
	C309.979095,604.000000 296.958221,604.000000 283.771790,603.620728
	C282.760223,602.828857 281.944550,602.145325 281.063324,602.046631
	C274.408295,601.300842 267.645355,601.163818 261.095612,599.903748
	C245.914886,596.983154 230.670288,594.153320 215.753433,590.159363
	C193.495178,584.199585 172.796188,574.290833 152.752258,562.995667
	C134.321625,552.609680 117.197136,540.315979 101.754753,525.966370
	C90.762115,515.751587 80.796768,504.389984 70.780991,493.175781
	C57.913792,478.769043 47.523220,462.530853 38.353680,445.618774
	C27.081110,424.827942 18.006712,403.015839 12.581633,379.935669
	C9.148171,365.328583 6.432532,350.520935 4.157278,335.686310
	C2.938331,327.738800 3.407941,319.539307 2.916354,311.465637
	C2.843918,310.275940 1.666286,309.153534 1.000000,308.000000
	C1.000000,304.638702 1.000000,301.277435 1.382875,297.761292
	C2.176784,296.258698 2.835154,294.933472 2.960004,293.559692
	C4.026778,281.821503 4.920686,270.067444 6.013689,258.331848
	C7.637612,240.895752 12.444601,224.169556 17.834846,207.617462
	C24.362448,187.572830 33.240959,168.601440 43.881123,150.371918
	C55.653408,130.202774 69.777168,111.876175 85.699753,94.904526
	C91.004822,89.249924 96.733818,83.937599 102.664932,78.938538
	C111.991302,71.077759 121.356773,63.203918 131.240997,56.078140
	C146.792740,44.866505 163.266724,35.002979 181.200272,28.098145
	C197.323517,21.890320 213.606400,15.892772 230.214111,11.201847
	C248.852875,5.937241 268.050385,3.092076 287.539307,2.913718
	C288.365295,2.906158 289.180023,1.665961 290.000000,0.999998
M343.105530,343.284973
	C353.135254,337.067505 363.124481,330.782684 373.238068,324.704803
	C374.764374,323.787537 376.966827,323.245605 378.693909,323.527283
	C397.537415,326.600220 416.352356,329.849670 435.167084,333.097229
	C447.698425,335.260254 460.769775,334.397339 472.633820,340.336670
	C482.145416,345.098267 490.636230,350.296875 494.204224,361.436462
	C499.698730,378.590759 496.687164,394.968506 490.758759,411.082550
	C485.471710,425.453247 476.648468,437.738678 465.768707,448.414276
	C454.023132,459.939453 442.861084,472.374847 429.713409,482.064331
	C417.265350,491.238190 402.851959,497.954529 388.771057,504.629822
	C379.397705,509.073456 369.298798,512.534790 359.153107,514.673340
	C343.729401,517.924438 327.983459,519.646912 312.215118,522.042908
	C312.215118,535.189453 312.215118,548.272095 312.215118,562.522949
	C326.452942,560.886047 340.464966,560.209778 354.090546,557.552246
	C426.092773,543.508667 481.990479,505.321625 521.155640,443.347687
	C529.431274,430.252441 537.552307,416.169464 541.467590,401.407196
	C548.135681,376.265747 547.338501,350.707947 534.186218,326.851746
	C526.966980,313.757202 516.614502,303.840607 502.520386,299.702911
	C489.225159,295.799774 475.220520,294.174194 461.447723,292.072296
	C444.524994,289.489624 427.401581,288.073944 410.602142,284.898773
	C402.975586,283.457306 395.128815,280.108521 388.810120,275.616119
	C381.323730,270.293518 374.701202,263.336456 368.991058,256.075806
	C364.876984,250.844666 361.100433,244.451935 363.197815,236.870819
	C368.096436,219.164551 376.301605,203.609879 391.861359,192.826126
	C394.183411,191.216858 396.388367,189.434387 398.606598,187.680298
	C407.943420,180.297058 418.361542,175.041168 430.330750,174.555679
	C452.220123,173.667816 473.667358,175.288681 485.185760,198.056168
	C489.726990,207.032471 495.678528,209.546432 505.178467,208.712158
	C515.342773,207.819519 525.646179,208.510895 536.036072,208.510895
	C535.945679,207.629639 535.998230,207.120560 535.834717,206.694397
	C529.764404,190.873413 520.512817,176.842148 510.518982,163.370682
	C502.212677,152.173981 491.800751,142.908432 478.419952,138.253815
	C470.013336,135.329544 461.127991,133.450989 452.303802,132.127747
	C435.074219,129.544128 417.893311,129.955109 400.934296,134.744583
	C385.919769,138.984924 373.269104,147.652161 360.557526,156.076706
	C341.694336,168.578262 327.544098,185.277130 319.346985,206.501602
	C316.413971,214.095901 314.811920,222.204254 312.414948,230.745956
	C309.521698,231.129425 305.431885,231.671494 301.064240,232.250397
	C303.584320,237.807358 306.025513,243.190384 308.625702,248.924072
	C305.229248,250.506302 302.137482,251.946609 298.582855,253.602539
	C304.320709,258.546570 309.788452,263.257812 315.343201,268.044037
	C311.297485,272.731964 307.563416,277.058807 303.601013,281.650177
	C311.905884,283.883759 319.548248,285.939117 327.787292,288.154968
	C321.778229,293.823853 316.272797,299.017609 310.373077,304.583313
	C320.813263,304.583313 330.598419,304.583313 340.974548,304.583313
	C334.430786,310.417603 328.202057,315.971039 321.973297,321.524475
	C322.117096,321.767456 322.260895,322.010406 322.404663,322.253357
	C332.766174,320.085266 343.127686,317.917206 354.054413,315.630859
	C349.787994,325.119629 345.806488,333.974762 341.314514,343.064484
	C341.326080,343.335541 341.337646,343.606628 341.349213,343.877686
	C341.731445,343.788574 342.113678,343.699463 343.105530,343.284973
M225.066208,195.499969
	C225.066208,312.785706 225.066208,430.071442 225.066208,548.115906
	C239.928207,551.872131 253.911865,555.406311 268.881226,559.189636
	C267.642090,407.199860 266.416077,256.824341 265.188202,106.216331
	C306.779541,97.869751 347.106628,101.177353 386.609955,116.503143
	C391.885071,104.024506 397.005585,91.911644 402.128632,79.792717
	C292.195007,35.681065 162.120239,73.656036 96.012398,180.605896
	C32.772842,282.915405 56.234131,405.342773 120.449867,475.289520
	C128.465561,464.291534 136.440201,453.349854 144.254242,442.628540
	C103.135811,387.690216 88.830292,327.126770 105.304260,260.854431
	C121.752815,194.684296 163.029861,148.445892 225.066208,118.721336
	C225.066208,144.882309 225.066208,169.691132 225.066208,195.499969
z"/>
</svg>
