<svg width="600" height="600" viewBox="0 0 600 600" fill="none" xmlns="http://www.w3.org/2000/svg">
<rect x="10" y="10" width="580" height="580" rx="290" fill="url(#paint0_linear_315_9)"/>
<path d="M287.862 0C295.851 1.99005e-06 303.841 2.07578e-06 311.995 0.380402C313.17 1.16984 314.153 1.84074 315.195 1.94738C325.559 3.00867 336.058 3.29056 346.276 5.13438C361.085 7.80679 375.873 10.9577 390.347 15.047C411.794 21.1067 431.862 30.5772 451.18 41.7276C473.045 54.3482 492.857 69.6442 510.884 87.1716C519.182 95.2392 526.536 104.303 534.044 113.148C546.048 127.291 556.047 142.822 564.739 159.175C574.964 178.41 583.031 198.497 588.99 219.492C594.746 239.768 598.497 260.418 599.405 281.358C600.301 301.998 600.725 322.799 596.609 343.271C593.83 357.094 591.228 370.983 587.649 384.608C581.482 408.083 571.164 429.88 559.176 450.927C548.337 469.957 535.244 487.355 520.423 503.382C502.877 522.356 483.483 539.459 461.116 552.457C443.749 562.55 425.68 571.728 407.146 579.455C380.417 590.599 352.217 596.534 323.187 598.09C322.337 598.136 321.549 599.337 320.732 600C307.762 600 294.793 600 281.658 599.623C280.651 598.835 279.838 598.155 278.96 598.056C272.332 597.314 265.595 597.178 259.071 595.924C243.95 593.018 228.766 590.202 213.908 586.228C191.737 580.298 171.12 570.439 151.155 559.2C132.797 548.865 115.74 536.633 100.358 522.355C89.4086 512.191 79.4825 500.886 69.5062 489.727C56.6897 475.392 46.34 459.235 37.2066 442.407C25.9784 421.719 16.9397 400.016 11.536 377.05C8.11608 362.516 5.41114 347.782 3.14484 333.021C1.9307 325.113 2.39846 316.955 1.90881 308.921C1.83666 307.737 0.663662 306.62 0 305.473C0 302.128 -2.9685e-08 298.784 0.381367 295.285C1.17215 293.79 1.82793 292.471 1.95229 291.104C3.01486 279.424 3.90525 267.729 4.99394 256.052C6.61147 238.702 11.3995 222.059 16.7685 205.59C23.2704 185.645 32.114 166.768 42.7123 148.629C54.4382 128.56 68.5063 110.325 84.3662 93.4373C89.6504 87.8109 95.3568 82.525 101.265 77.5508C110.554 69.7291 119.883 61.8944 129.728 54.8041C145.219 43.6483 161.628 33.8338 179.491 26.9633C195.55 20.7864 211.769 14.8187 228.311 10.1511C246.877 4.91268 265.999 2.08167 285.411 1.9042C286.234 1.89668 287.045 0.66265 287.862 0ZM340.758 340.582C350.749 334.396 360.698 328.142 370.772 322.094C372.292 321.182 374.486 320.642 376.207 320.923C394.976 323.98 413.717 327.214 432.457 330.445C444.939 332.597 457.959 331.739 469.776 337.648C479.251 342.386 487.708 347.559 491.262 358.643C496.735 375.712 493.735 392.008 487.83 408.042C482.564 422.342 473.775 434.566 462.938 445.188C451.239 456.656 440.121 469.03 427.025 478.671C414.626 487.799 400.269 494.482 386.244 501.124C376.908 505.546 366.848 508.99 356.743 511.118C341.38 514.353 325.696 516.067 309.99 518.451C309.99 531.532 309.99 544.549 309.99 558.729C324.171 557.101 338.128 556.428 351.7 553.783C423.419 539.81 479.096 501.813 518.107 440.147C526.35 427.117 534.439 413.104 538.339 398.415C544.981 373.399 544.187 347.968 531.086 324.231C523.896 311.201 513.584 301.334 499.545 297.217C486.302 293.333 472.353 291.716 458.634 289.624C441.778 287.054 424.722 285.646 407.989 282.486C400.393 281.052 392.577 277.72 386.283 273.25C378.826 267.954 372.23 261.031 366.542 253.807C362.444 248.602 358.682 242.241 360.771 234.697C365.651 217.079 373.824 201.602 389.322 190.872C391.635 189.271 393.831 187.497 396.041 185.752C405.341 178.405 415.718 173.175 427.64 172.692C449.443 171.809 470.806 173.422 482.279 196.076C486.802 205.007 492.73 207.509 502.193 206.679C512.317 205.791 522.58 206.478 532.929 206.478C532.839 205.602 532.891 205.095 532.728 204.671C526.682 188.929 517.467 174.967 507.512 161.563C499.239 150.422 488.868 141.202 475.54 136.571C467.166 133.661 458.316 131.792 449.527 130.475C432.365 127.905 415.252 128.314 398.359 133.079C383.404 137.298 370.803 145.923 358.142 154.305C339.353 166.745 325.258 183.36 317.093 204.479C314.172 212.036 312.576 220.104 310.189 228.603C307.307 228.984 303.233 229.524 298.883 230.1C301.393 235.629 303.824 240.985 306.414 246.691C303.031 248.265 299.952 249.698 296.411 251.346C302.126 256.265 307.572 260.953 313.105 265.715C309.076 270.38 305.356 274.685 301.409 279.254C309.682 281.476 317.294 283.522 325.5 285.726C319.515 291.367 314.031 296.535 308.155 302.073C318.554 302.073 328.3 302.073 338.636 302.073C332.118 307.878 325.914 313.404 319.709 318.93C319.853 319.172 319.996 319.413 320.139 319.655C330.46 317.498 340.78 315.34 351.664 313.066C347.414 322.507 343.449 331.318 338.974 340.363C338.986 340.632 338.997 340.902 339.009 341.172C339.39 341.083 339.77 340.994 340.758 340.582ZM223.184 193.532C223.184 310.235 223.184 426.937 223.184 544.394C237.987 548.131 251.916 551.648 266.826 555.413C265.592 404.179 264.371 254.552 263.148 104.693C304.575 96.3878 344.744 99.679 384.091 114.928C389.346 102.512 394.446 90.4593 399.549 78.4007C290.048 34.5085 160.486 72.2946 94.6382 178.712C31.6477 280.513 55.0166 402.331 118.979 471.93C126.964 460.987 134.907 450.099 142.69 439.431C101.734 384.766 87.4844 324.504 103.894 258.562C120.277 192.721 161.392 146.712 223.184 117.136C223.184 143.166 223.184 167.852 223.184 193.532Z" fill="black"/>
<defs>
<linearGradient id="paint0_linear_315_9" x1="10" y1="298.076" x2="590" y2="301.912" gradientUnits="userSpaceOnUse">
<stop stop-color="#13FFAA"/>
<stop offset="0.5" stop-color="#1E67C6"/>
<stop offset="0.75" stop-color="#CE84CF"/>
<stop offset="1" stop-color="#DD335C"/>
</linearGradient>
</defs>
</svg>
